<svg version="1.1" id="svg815" xmlns:sodipodi="http://sodipodi.sourceforge.net/DTD/sodipodi-0.dtd" xmlns:cc="http://creativecommons.org/ns#" xmlns:dc="http://purl.org/dc/elements/1.1/" xmlns:rdf="http://www.w3.org/1999/02/22-rdf-syntax-ns#" xmlns:svg="http://www.w3.org/2000/svg" xmlns:inkscape="http://www.inkscape.org/namespaces/inkscape" inkscape:version="0.92.3 (2405546, 2018-03-11)" xmlns="http://www.w3.org/2000/svg" xmlns:xlink="http://www.w3.org/1999/xlink" x="0px" y="0px" viewBox="411 -103 279.5 304.3" style="enable-background:new 411 -103 279.5 304.3;" xml:space="preserve">
 <style type="text/css">
  .st0{fill:#48BBE5;}
	.st1{fill:#F37D31;}
 </style>
 <sodipodi:namedview fit-margin-left="0" inkscape:cy="-340.75859" pagecolor="#ffffff" showgrid="false" gridtolerance="10" borderopacity="1" bordercolor="#666666" objecttolerance="10" inkscape:zoom="0.3935362" inkscape:cx="590.74747" id="namedview817" guidetolerance="10" fit-margin-top="0" inkscape:pageshadow="2" fit-margin-right="0" inkscape:pageopacity="0" fit-margin-bottom="0" inkscape:window-y="-8" inkscape:current-layer="svg815" inkscape:window-width="1366" inkscape:window-x="-8" inkscape:window-maximized="1" inkscape:window-height="745">
 </sodipodi:namedview>
 <g id="g907" transform="scale(0.67451479)">
  <path id="path889" inkscape:connector-curvature="0" class="st0" d="M863.2,287.1c-40.1-45.1-66-73.8-73.9-82
		c-7-7.3-9.2-11.1-9.3-16.3c0-2.2,0.1-3,0.7-4.2c0.8-1.7-0.2-0.7,27.6-29.7c11.7-12.2,22.8-23.8,24.6-25.7
		c9.3-9.8,10.2-10.6,12.4-11.8c5.5-2.9,10.3-3.1,15.1-0.7c2.7,1.4,0.2-1.3,33,34.7c13.2,14.5,35.9,39.5,50.5,55.5
		c28.4,31.2,51.4,56.6,56,61.8c4.4,5,5.8,8.5,5.7,15c0,6.1-1.7,10.2-5.2,12.8c-3.1,2.3,2.2,2.1-65.7,2.1h-61.4L863.2,287.1z">
  </path>
  <path id="path849" inkscape:connector-curvature="0" class="st1" d="M618.4,295.5c-0.9-0.2-2.1-0.7-2.8-0.9
		c-1.9-0.8-4.4-3.4-5.4-5.5l-0.9-1.9l0-66.9l0-66.9l139.9-153l139.9-153l60.5-0.1c59.5-0.1,60.5-0.1,62.6,0.5
		c4.6,1.4,8.5,4.7,10.4,8.6c0.8,1.6,1,2.6,1.1,4.8c0.2,3.4-0.3,5.6-2,9.2c-1.8,3.8-3.6,6.1-10.2,13.1
		c-16.2,17.1-64.2,69.4-219.9,239.1C679,245.4,642.3,285.3,637.6,290.1c-2.1,2.1-4.9,3.7-8.6,4.9
		C626.2,295.9,620.8,296.2,618.4,295.5z">
  </path>
  <path id="path829" inkscape:connector-curvature="0" class="st0" d="M620.2,77.6c-4-1.1-7.2-3.8-9.2-7.8l-1.2-2.5l-0.1-105.3
		c-0.1-118.1-0.3-107.3,2.4-110.2c1.7-1.9,3.7-3,6.8-3.8c2-0.5,5.5-0.6,47.4-0.6c41.9,0,45.4,0,47.3,0.6c2.8,0.8,4.4,1.7,6.1,3.4
		c1.7,1.7,2.6,3.5,3.4,6.3c0.4,1.7,0.5,8.7,0.5,60.5l0,58.6L711.2-9.5c-45.4,50.6-72.7,80.3-76.5,83.4
		C630.5,77.4,624.8,78.9,620.2,77.6L620.2,77.6z">
  </path>
 </g>
</svg>